# xmcd
#
# Track frame offsets: 
#        150
#        17779
#        38725
#        55797
#        73474
#        90153
#        112355
#        133357
#        155899
#        172254
#
# Disc length: 2607 seconds
#
# Revision: 1
# Processed by: cddbd v1.5.2PL0 Copyright (c) Steve Scherf et al.
# Submitted via: ExactAudioCopy v1.0b4
#
DISCID=970a2d0a
DTITLE=The Josh Garrett Band - Honey For My Queen
DYEAR=2015
DGENRE=Blues
TTITLE0=Honey For My Queen
TTITLE1=Memphis
TTITLE2=The Josh Garrett Band feat. James Johnson - Same Boat (Feat. J
TTITLE2=ames Johnson)
TTITLE3=Goodnight, Goodnight
TTITLE4=Slide In ''G''
TTITLE5=Easy Chair
TTITLE6=Whole Bottle Of Whine
TTITLE7=Ain't Nobody's Business
TTITLE8=Dat's Alright With Me
TTITLE9=Moonshine and Cigarettes
EXTD=
EXTT0=
EXTT1=
EXTT2=
EXTT3=
EXTT4=
EXTT5=
EXTT6=
EXTT7=
EXTT8=
EXTT9=
PLAYORDER=
